# xmcd CD database file
#
# Track frame offsets:
#	150
#	18164
#	37170
#	54724
#	72247
#	87593
#	103144
#	118937
#	133465
#	151069
#	167691
#	183114
#	200943
#
# Disc length: 2944 seconds
#
# Revision: 1
# Processed by: cddbd v1.5.2PL0 Copyright (c) Steve Scherf et al.
# Submitted via: CDex 1.51
#
DISCID=c00b7e0d
DTITLE=Lee Brice - I Don't Dance
DYEAR=2014
DGENRE=Country
TTITLE0=I Don't Dance
TTITLE1=No Better Than This
TTITLE2=Show You Off Tonight
TTITLE3=Always The Only One
TTITLE4=Good Man
TTITLE5=Drinking Class
TTITLE6=That Don't Sound Like You
TTITLE7=Girls In Bikinis
TTITLE8=Sirens
TTITLE9=Somebody's Been Drinking
TTITLE10=Hard To Figure Out (The Airport Song)
TTITLE11=My Carolina
TTITLE12=Panama City
EXTD=YEAR: 2014
EXTT0=
EXTT1=
EXTT2=
EXTT3=
EXTT4=
EXTT5=
EXTT6=
EXTT7=
EXTT8=
EXTT9=
EXTT10=
EXTT11=
EXTT12=
PLAYORDER=
